<?xml version="1.0" encoding="iso-8859-1"?>
<!-- Generator: Adobe Illustrator 19.0.0, SVG Export Plug-In . SVG Version: 6.00 Build 0)  -->
<svg version="1.1" id="Layer_1" xmlns="http://www.w3.org/2000/svg" xmlns:xlink="http://www.w3.org/1999/xlink" x="0px" y="0px"
	 viewBox="0 0 460 460" style="enable-background:new 0 0 460 460;" xml:space="preserve">
<g id="XMLID_1306_">
	<path id="XMLID_1125_" style="fill:#544236;" d="M329.999,460L329.999,460h-50h-100h-50l0,0c0-16.569,13.431-30,30-30h20V30
		c0-16.569,13.431-30,30-30h40c16.569,0,30,13.431,30,30v400h20C316.568,430,329.999,443.431,329.999,460z"/>
	<path id="XMLID_1124_" style="fill:#8C7554;" d="M329.999,460L329.999,460h-50h-25h-25v-30V55c0-13.807,11.193-25,25-25
		s25,11.193,25,25v375h20C316.568,430,329.999,443.431,329.999,460z"/>
	<path id="XMLID_1119_" style="fill:#A5AA61;" d="M85.012,345.547l-33.333-50c-2.239-3.359-2.239-7.735,0-11.094l33.333-50
		c1.855-2.782,4.977-4.453,8.321-4.453h276.666c5.523,0,10,4.477,10,10v100c0,5.523-4.477,10-10,10H93.332
		C89.989,350,86.866,348.329,85.012,345.547z"/>
	<path id="XMLID_1117_" style="fill:#8A9249;" d="M97.675,250H358.99v80H97.675l-26.667-40L97.675,250z"/>
	<path id="XMLID_1123_" style="fill:#7E9FAA;" d="M366.666,190H89.999c-5.523,0-10-4.477-10-10V80c0-5.523,4.477-10,10-10h276.667
		c3.344,0,6.466,1.671,8.321,4.453l33.333,50c2.239,3.359,2.239,7.735,0,11.094l-33.333,50C373.132,188.329,370.009,190,366.666,190
		z"/>
	<path id="XMLID_1122_" style="fill:#5C676B;" d="M388.99,130l-26.667,40H101.008V90h261.315L388.99,130z"/>
</g>
<g>
</g>
<g>
</g>
<g>
</g>
<g>
</g>
<g>
</g>
<g>
</g>
<g>
</g>
<g>
</g>
<g>
</g>
<g>
</g>
<g>
</g>
<g>
</g>
<g>
</g>
<g>
</g>
<g>
</g>
</svg>
